<?xml version="1.0" encoding="UTF-8"?>
<svg width="108px" height="108px" viewBox="0 0 108 108" version="1.1" xmlns="http://www.w3.org/2000/svg" xmlns:xlink="http://www.w3.org/1999/xlink">
    <title>中心云大</title>
    <defs>
        <linearGradient x1="-2.52367571e-12%" y1="50%" x2="91.7773437%" y2="59.2988018%" id="linearGradient-1">
            <stop stop-color="#475DF3" offset="0%"></stop>
            <stop stop-color="#0023FF" offset="34.57441%"></stop>
            <stop stop-color="#0188F4" offset="100%"></stop>
        </linearGradient>
        <linearGradient x1="31.2670773%" y1="51.75001%" x2="78.3877841%" y2="61.8059282%" id="linearGradient-2">
            <stop stop-color="#174EEA" offset="0%"></stop>
            <stop stop-color="#428FFC" offset="100%"></stop>
        </linearGradient>
        <linearGradient x1="61.0548757%" y1="17.7933601%" x2="26.4142028%" y2="82.2193007%" id="linearGradient-3">
            <stop stop-color="#9F86FE" offset="0%"></stop>
            <stop stop-color="#04AAF8" offset="100%"></stop>
        </linearGradient>
        <linearGradient x1="50%" y1="0%" x2="50%" y2="100%" id="linearGradient-4">
            <stop stop-color="#376DFA" offset="0%"></stop>
            <stop stop-color="#149FFF" offset="100%"></stop>
        </linearGradient>
        <linearGradient x1="10.0909186%" y1="69.3047363%" x2="92.1843017%" y2="27.7428984%" id="linearGradient-5">
            <stop stop-color="#7F75FF" offset="0%"></stop>
            <stop stop-color="#0067FE" offset="100%"></stop>
        </linearGradient>
        <linearGradient x1="50%" y1="0.491695804%" x2="50%" y2="100%" id="linearGradient-6">
            <stop stop-color="#2B85F9" offset="0%"></stop>
            <stop stop-color="#184CEB" offset="100%"></stop>
        </linearGradient>
        <linearGradient x1="50%" y1="0%" x2="50%" y2="99.0466565%" id="linearGradient-7">
            <stop stop-color="#003FF0" offset="0%"></stop>
            <stop stop-color="#1189FF" offset="100%"></stop>
        </linearGradient>
        <linearGradient x1="50%" y1="0%" x2="50%" y2="100%" id="linearGradient-8">
            <stop stop-color="#1C7EFF" offset="0%"></stop>
            <stop stop-color="#847AFF" offset="100%"></stop>
        </linearGradient>
        <linearGradient x1="18.1086961%" y1="67.99901%" x2="82.2893478%" y2="67.99901%" id="linearGradient-9">
            <stop stop-color="#3F34C5" offset="0%"></stop>
            <stop stop-color="#00B4F8" offset="100%"></stop>
        </linearGradient>
        <radialGradient cx="62.0325663%" cy="30.9874634%" fx="62.0325663%" fy="30.9874634%" r="71.6353757%" gradientTransform="translate(0.620326,0.309875),scale(1.000000,0.987816),rotate(121.918370),translate(-0.620326,-0.309875)" id="radialGradient-10">
            <stop stop-color="#5BEEFF" offset="0%"></stop>
            <stop stop-color="#107DF3" offset="65.583292%"></stop>
            <stop stop-color="#0144E1" offset="100%"></stop>
        </radialGradient>
        <filter x="-49.3%" y="-27.3%" width="198.5%" height="154.6%" filterUnits="objectBoundingBox" id="filter-11">
            <feGaussianBlur stdDeviation="4" in="SourceGraphic"></feGaussianBlur>
        </filter>
        <filter x="-34.7%" y="-34.3%" width="169.4%" height="168.6%" filterUnits="objectBoundingBox" id="filter-12">
            <feGaussianBlur stdDeviation="2" in="SourceGraphic"></feGaussianBlur>
        </filter>
    </defs>
    <g id="大页面" stroke="none" stroke-width="1" fill="none" fill-rule="evenodd">
        <g id="切图" transform="translate(-572.000000, -136.000000)">
            <g id="编组-39备份" transform="translate(583.000000, 145.000000)">
                <path d="M45.4894184,88.0635098 C58.3073328,88.0635098 68.6983054,83.014325 68.6983054,76.7858399 C68.6983054,70.5573547 58.3073328,65.5081699 45.4894184,65.5081699 C32.6715041,65.5081699 22.2805315,70.5573547 22.2805315,76.7858399 C22.2805315,83.014325 32.6715041,88.0635098 45.4894184,88.0635098 Z" id="椭圆形" fill="url(#linearGradient-1)"></path>
                <path d="M45.4120555,83.7644304 C57.1618103,83.7644304 66.6868685,79.136011 66.6868685,73.4265663 C66.6868685,67.7171216 57.1618103,63.0887022 45.4120555,63.0887022 C33.6623007,63.0887022 24.1372424,67.7171216 24.1372424,73.4265663 C24.1372424,79.136011 33.6623007,83.7644304 45.4120555,83.7644304 Z" id="椭圆形" fill="url(#linearGradient-2)"></path>
                <path d="M45.5862397,81.5907593 C64.0440364,81.5907593 79.007037,66.4432049 79.007037,47.7577495 C79.007037,29.0722941 64.0440364,13.9247396 45.5862397,13.9247396 C27.1284431,13.9247396 12.1654425,29.0722941 12.1654425,47.7577495 C12.1654425,66.4432049 27.1284431,81.5907593 45.5862397,81.5907593 Z" id="椭圆形" fill="#198DFF" opacity="0.229631696"></path>
                <path d="M76.4808138,23.4472568 C82.8426847,23.4472568 88,18.2263311 88,11.7859929 C88,5.34565462 82.8426847,0.124728905 76.4808138,0.124728905 C70.118943,0.124728905 64.9616277,5.34565462 64.9616277,11.7859929 C64.9616277,18.2263311 70.118943,23.4472568 76.4808138,23.4472568 Z" id="椭圆形" fill="url(#linearGradient-3)"></path>
                <path d="M65.8890252,16.9692039 C66.538098,16.9731629 67.0702672,17.4849675 67.0995362,18.1333921 L67.6157092,29.5686401 L67.6157092,29.5686401 L65.2991493,29.5545101 L64.7829763,18.1192622 C64.7555705,17.5121153 65.2255435,16.9977086 65.8326903,16.9703028 C65.8514562,16.9694557 65.8702406,16.9690893 65.8890252,16.9692039 Z" id="矩形" fill="url(#linearGradient-4)" transform="translate(66.173227, 23.265389) rotate(42.000000) translate(-66.173227, -23.265389) "></path>
                <path d="M7.25915164,78.6346892 C11.2682704,78.6346892 14.5183033,75.3445703 14.5183033,71.286003 C14.5183033,67.2274357 11.2682704,63.9373169 7.25915164,63.9373169 C3.25003289,63.9373169 0,67.2274357 0,71.286003 C0,75.3445703 3.25003289,78.6346892 7.25915164,78.6346892 Z" id="椭圆形备份-8" fill="url(#linearGradient-5)"></path>
                <path d="M16.5964949,60.6957404 L18.9193993,60.7090913 L17.2608974,70.8640099 C17.1531009,71.5240421 16.5809998,72.0074625 15.912234,72.0036188 C15.3638624,72.000467 14.9218744,71.5533689 14.9250262,71.0049973 C14.9253233,70.9532921 14.9296588,70.901689 14.937993,70.850659 L16.5964949,60.6957404 L16.5964949,60.6957404 Z" id="矩形备份-12" fill="url(#linearGradient-6)" transform="translate(16.835091, 66.353017) rotate(55.000000) translate(-16.835091, -66.353017) "></path>
                <path d="M66.1199828,69.8879097 C66.7481962,69.8840592 67.2605851,70.3902054 67.2644356,71.0184188 C67.2644792,71.0255318 67.2644561,71.0326451 67.2643662,71.0397576 L67.175514,78.074065 L67.175514,78.074065 L64.857469,78.0882728 L64.9463212,71.0539654 C64.9544502,70.4104071 65.4763852,69.8918544 66.1199828,69.8879097 Z" id="矩形备份-28" fill="url(#linearGradient-7)" transform="translate(66.068237, 73.984539) rotate(135.000000) translate(-66.068237, -73.984539) "></path>
                <path d="M75.7766533,94.1934261 C81.2891916,94.1934261 85.7579868,89.6695127 85.7579868,84.0889827 C85.7579868,78.5084527 81.2891916,73.9845393 75.7766533,73.9845393 C70.264115,73.9845393 65.7953198,78.5084527 65.7953198,84.0889827 C65.7953198,89.6695127 70.264115,94.1934261 75.7766533,94.1934261 Z" id="椭圆形备份-9" fill="url(#linearGradient-8)"></path>
                <path d="M28.4511905,9.18585766 C30.9568897,9.18585766 32.9881603,7.12953338 32.9881603,4.59292883 C32.9881603,2.05632428 30.9568897,0 28.4511905,0 C25.9454913,0 23.9142207,2.05632428 23.9142207,4.59292883 C23.9142207,7.12953338 25.9454913,9.18585766 28.4511905,9.18585766 Z" id="椭圆形备份-11" fill="url(#linearGradient-9)"></path>
                <path d="M45.3386833,76.6917675 C60.7201805,76.6917675 73.1893477,64.0688055 73.1893477,48.4975926 C73.1893477,32.9263798 60.7201805,20.3034178 45.3386833,20.3034178 C29.9571861,20.3034178 17.488019,32.9263798 17.488019,48.4975926 C17.488019,64.0688055 29.9571861,76.6917675 45.3386833,76.6917675 Z" id="椭圆形备份" fill="url(#radialGradient-10)"></path>
                <path d="M28.5124687,79.6817623 C33.3214078,79.6534216 54.272995,71.9140243 51.7659141,58.0810862 C49.2588333,44.2481482 34.3921517,33.5260881 30.9583805,36.1136202 C27.5246094,38.7011524 36.5466429,48.233698 37.3148056,59.1937129 C38.0829683,70.1537278 23.9937859,79.7082851 28.5124687,79.6817623 Z" id="椭圆形" fill="#7552FF" opacity="0.72593471" filter="url(#filter-11)" transform="translate(39.795114, 57.704083) rotate(127.000000) translate(-39.795114, -57.704083) "></path>
                <ellipse id="椭圆形" fill="#DFF9FD" filter="url(#filter-12)" cx="55.8680528" cy="39.9930272" rx="8.63938961" ry="8.74594798"></ellipse>
                <ellipse id="椭圆形" stroke="#FFFFFF" stroke-width="0.5" opacity="0.185453869" cx="45.3386833" cy="21.0312567" rx="11.5461214" ry="6.77250465"></ellipse>
                <ellipse id="椭圆形" stroke="#FFFFFF" stroke-width="0.5" opacity="0.185453869" cx="44.4312894" cy="32.1914086" rx="25.1570307" ry="14.8847083"></ellipse>
                <path d="M23.605386,27.9707751 C16.3611454,31.7515755 11.765107,37.3872649 11.765107,43.6819932 C11.765107,55.0657316 26.7965091,64.294075 45.3386833,64.294075 C63.8808575,64.294075 78.9122597,55.0657316 78.9122597,43.6819932 C78.9122597,37.6974186 74.7579751,32.3085386 68.1232745,28.5430041" id="路径" stroke="#FFFFFF" stroke-width="0.5" opacity="0.185453869" stroke-linecap="round"></path>
                <path d="M16.0909423,47.4533044 C13.722147,50.0788056 12.38387,53.0607627 12.38387,56.2223303 C12.38387,66.7592812 27.2490773,75.3011676 45.5862397,75.3011676 C63.9234022,75.3011676 78.7886095,66.7592812 78.7886095,56.2223303 C78.7886095,53.1326238 76.3144532,50.2144557 74.0454367,47.6328844" id="路径" stroke="#FFFFFF" stroke-width="0.5" opacity="0.185453869" stroke-linecap="round"></path>
            </g>
        </g>
    </g>
</svg>