<?xml version="1.0" encoding="UTF-8"?>
<svg width="60px" height="60px" viewBox="0 0 60 60" version="1.1" xmlns="http://www.w3.org/2000/svg" xmlns:xlink="http://www.w3.org/1999/xlink">
    <title>中心云小</title>
    <defs>
        <linearGradient x1="-2.52367571e-12%" y1="50%" x2="91.7773437%" y2="59.2988018%" id="linearGradient-1">
            <stop stop-color="#475DF3" offset="0%"></stop>
            <stop stop-color="#0023FF" offset="34.57441%"></stop>
            <stop stop-color="#0188F4" offset="100%"></stop>
        </linearGradient>
        <linearGradient x1="31.2670773%" y1="51.75001%" x2="78.3877841%" y2="61.8059282%" id="linearGradient-2">
            <stop stop-color="#174EEA" offset="0%"></stop>
            <stop stop-color="#428FFC" offset="100%"></stop>
        </linearGradient>
        <linearGradient x1="61.0548757%" y1="17.7933601%" x2="26.4142028%" y2="82.2193007%" id="linearGradient-3">
            <stop stop-color="#9F86FE" offset="0%"></stop>
            <stop stop-color="#04AAF8" offset="100%"></stop>
        </linearGradient>
        <linearGradient x1="50%" y1="0%" x2="50%" y2="100%" id="linearGradient-4">
            <stop stop-color="#376DFA" offset="0%"></stop>
            <stop stop-color="#149FFF" offset="100%"></stop>
        </linearGradient>
        <linearGradient x1="10.0909186%" y1="69.3047363%" x2="92.1843017%" y2="27.7428984%" id="linearGradient-5">
            <stop stop-color="#7F75FF" offset="0%"></stop>
            <stop stop-color="#0067FE" offset="100%"></stop>
        </linearGradient>
        <linearGradient x1="50%" y1="0.491695804%" x2="50%" y2="100%" id="linearGradient-6">
            <stop stop-color="#2B85F9" offset="0%"></stop>
            <stop stop-color="#184CEB" offset="100%"></stop>
        </linearGradient>
        <linearGradient x1="50%" y1="0%" x2="50%" y2="99.0466565%" id="linearGradient-7">
            <stop stop-color="#003FF0" offset="0%"></stop>
            <stop stop-color="#1189FF" offset="100%"></stop>
        </linearGradient>
        <linearGradient x1="50%" y1="0%" x2="50%" y2="100%" id="linearGradient-8">
            <stop stop-color="#1C7EFF" offset="0%"></stop>
            <stop stop-color="#847AFF" offset="100%"></stop>
        </linearGradient>
        <linearGradient x1="18.1086961%" y1="67.99901%" x2="82.2893478%" y2="67.99901%" id="linearGradient-9">
            <stop stop-color="#3F34C5" offset="0%"></stop>
            <stop stop-color="#00B4F8" offset="100%"></stop>
        </linearGradient>
        <radialGradient cx="62.0325663%" cy="30.9874634%" fx="62.0325663%" fy="30.9874634%" r="71.6353757%" gradientTransform="translate(0.620326,0.309875),scale(1.000000,0.987816),rotate(121.918370),translate(-0.620326,-0.309875)" id="radialGradient-10">
            <stop stop-color="#5BEEFF" offset="0%"></stop>
            <stop stop-color="#107DF3" offset="65.583292%"></stop>
            <stop stop-color="#0144E1" offset="100%"></stop>
        </radialGradient>
        <filter x="-91.5%" y="-50.7%" width="283.0%" height="201.4%" filterUnits="objectBoundingBox" id="filter-11">
            <feGaussianBlur stdDeviation="4" in="SourceGraphic"></feGaussianBlur>
        </filter>
        <filter x="-64.5%" y="-63.7%" width="228.9%" height="227.4%" filterUnits="objectBoundingBox" id="filter-12">
            <feGaussianBlur stdDeviation="2" in="SourceGraphic"></feGaussianBlur>
        </filter>
    </defs>
    <g id="大页面" stroke="none" stroke-width="1" fill="none" fill-rule="evenodd">
        <g id="切图" transform="translate(-593.000000, -39.000000)">
            <g id="编组-39备份" transform="translate(596.000000, 42.000000)">
                <path d="M24.5,50.698508 C31.4035594,50.698508 37,47.9790838 37,44.6245039 C37,41.2699241 31.4035594,38.5504998 24.5,38.5504998 C17.5964406,38.5504998 12,41.2699241 12,44.6245039 C12,47.9790838 17.5964406,50.698508 24.5,50.698508 Z" id="椭圆形" fill="url(#linearGradient-1)"></path>
                <path d="M24.4583333,48.3830807 C30.7865961,48.3830807 35.9166667,45.8902751 35.9166667,42.8152436 C35.9166667,39.7402121 30.7865961,37.2474065 24.4583333,37.2474065 C18.1300706,37.2474065 13,39.7402121 13,42.8152436 C13,45.8902751 18.1300706,48.3830807 24.4583333,48.3830807 Z" id="椭圆形" fill="url(#linearGradient-2)"></path>
                <path d="M24.5521467,47.2123701 C34.4932722,47.2123701 42.5521467,39.0540973 42.5521467,28.9903578 C42.5521467,18.9266183 34.4932722,10.7683455 24.5521467,10.7683455 C14.6110212,10.7683455 6.55214668,18.9266183 6.55214668,28.9903578 C6.55214668,39.0540973 14.6110212,47.2123701 24.5521467,47.2123701 Z" id="椭圆形" fill="#198DFF" opacity="0.229631696"></path>
                <path d="M41.1915563,15.8970475 C44.6179759,15.8970475 47.3956378,13.0851259 47.3956378,9.61644478 C47.3956378,6.14776366 44.6179759,3.33584202 41.1915563,3.33584202 C37.7651367,3.33584202 34.9874747,6.14776366 34.9874747,9.61644478 C34.9874747,13.0851259 37.7651367,15.8970475 41.1915563,15.8970475 Z" id="椭圆形" fill="url(#linearGradient-3)"></path>
                <path d="M35.4869588,12.4080538 C35.8365408,12.4101861 36.1231601,12.6858372 36.1389241,13.0350702 L36.416928,19.1939437 L36.416928,19.1939437 L35.1692594,19.1863335 L34.8912555,13.02746 C34.8764951,12.7004587 35.1296163,12.4234061 35.4566176,12.4086456 C35.4667246,12.4081894 35.4768417,12.4079921 35.4869588,12.4080538 Z" id="矩形" fill="url(#linearGradient-4)" transform="translate(35.640026, 15.799096) rotate(42.000000) translate(-35.640026, -15.799096) "></path>
                <path d="M3.9096832,45.6202697 C6.06894162,45.6202697 7.81936641,43.8482552 7.81936641,41.6623644 C7.81936641,39.4764737 6.06894162,37.7044591 3.9096832,37.7044591 C1.75042479,37.7044591 0,39.4764737 0,41.6623644 C0,43.8482552 1.75042479,45.6202697 3.9096832,45.6202697 Z" id="椭圆形备份-8" fill="url(#linearGradient-5)"></path>
                <path d="M8.93865298,35.9585888 L10.1897386,35.9657795 L9.29649138,41.4350845 C9.23843362,41.7905691 8.93030752,42.050933 8.57011909,42.0488628 C8.27477338,42.0471653 8.03672448,41.8063642 8.03842198,41.5110185 C8.03858204,41.4831707 8.04091707,41.455378 8.04540577,41.4278939 L8.93865298,35.9585888 L8.93865298,35.9585888 Z" id="矩形备份-12" fill="url(#linearGradient-6)" transform="translate(9.067157, 39.005523) rotate(55.000000) translate(-9.067157, -39.005523) "></path>
                <path d="M35.6113495,40.9093698 C35.9496969,40.907296 36.2256629,41.1798997 36.2277367,41.5182471 C36.2277601,41.5220781 36.2277477,41.5259092 36.2276993,41.5297399 L36.1798446,45.318325 L36.1798446,45.318325 L34.9313762,45.3259771 L34.9792309,41.537392 C34.983609,41.19078 35.2647163,40.9114944 35.6113495,40.9093698 Z" id="矩形备份-28" fill="url(#linearGradient-7)" transform="translate(35.583480, 43.115760) rotate(135.000000) translate(-35.583480, -43.115760) "></path>
                <path d="M40.8123047,54 C43.781285,54 46.1881191,51.56348 46.1881191,48.5578802 C46.1881191,45.5522805 43.781285,43.1157604 40.8123047,43.1157604 C37.8433244,43.1157604 35.4364903,45.5522805 35.4364903,48.5578802 C35.4364903,51.56348 37.8433244,54 40.8123047,54 Z" id="椭圆形备份-9" fill="url(#linearGradient-8)"></path>
                <path d="M24.0398746,4.94738162 C25.3894111,4.94738162 26.4834266,3.83987252 26.4834266,2.47369081 C26.4834266,1.1075091 25.3894111,4.60356212e-13 24.0398746,4.60356212e-13 C22.6903381,4.60356212e-13 21.5963226,1.1075091 21.5963226,2.47369081 C21.5963226,3.83987252 22.6903381,4.94738162 24.0398746,4.94738162 Z" id="椭圆形备份-11" fill="url(#linearGradient-9)"></path>
                <path d="M24.4188161,44.5738378 C32.7030873,44.5738378 39.4188161,37.7752771 39.4188161,29.3888276 C39.4188161,21.002378 32.7030873,14.2038173 24.4188161,14.2038173 C16.1345448,14.2038173 9.41881606,21.002378 9.41881606,29.3888276 C9.41881606,37.7752771 16.1345448,44.5738378 24.4188161,44.5738378 Z" id="椭圆形备份" fill="url(#radialGradient-10)"></path>
                <path d="M15.3564391,46.1842095 C17.9464702,46.1689456 29.2307183,42.0006084 27.8804377,34.5503707 C26.5301571,27.1001329 18.5231587,21.3253729 16.6737749,22.7189836 C14.8243911,24.1125942 19.6835392,29.2466974 20.0972615,35.1496167 C20.5109837,41.052536 12.9227362,46.1984943 15.3564391,46.1842095 Z" id="椭圆形" fill="#7552FF" filter="url(#filter-11)" transform="translate(21.433123, 34.347322) rotate(127.000000) translate(-21.433123, -34.347322) "></path>
                <ellipse id="椭圆形" fill="#DFF9FD" filter="url(#filter-12)" cx="30.0897954" cy="24.8083809" rx="4.65306115" ry="4.71045207"></ellipse>
                <ellipse id="椭圆形" stroke="#FFFFFF" stroke-width="0.5" opacity="0.185453869" cx="24.4188161" cy="14.5958218" rx="6.10323521" ry="3.53222826"></ellipse>
                <ellipse id="椭圆形" stroke="#FFFFFF" stroke-width="0.5" opacity="0.185453869" cx="23.9301057" cy="20.6065322" rx="13.4338912" ry="7.901354"></ellipse>
                <path d="M12.7135491,18.3333547 C8.81189685,20.3696439 6.33653124,23.4049518 6.33653124,26.7952093 C6.33653124,32.9263405 14.4322459,37.8966043 24.4188161,37.8966043 C34.4053862,37.8966043 42.5011009,32.9263405 42.5011009,26.7952093 C42.5011009,23.5719965 40.2636581,20.6696169 36.690296,18.6415497" id="路径" stroke="#FFFFFF" stroke-width="0.5" opacity="0.185453869" stroke-linecap="round"></path>
                <path d="M8.666369,28.8263877 C7.39056714,30.240448 6.66978884,31.8464907 6.66978884,33.5492692 C6.66978884,39.2243318 14.6759932,43.8248791 24.5521467,43.8248791 C34.4283002,43.8248791 42.4345045,39.2243318 42.4345045,33.5492692 C42.4345045,31.8851941 41.1019566,30.3135074 39.8798943,28.9231071" id="路径" stroke="#FFFFFF" stroke-width="0.5" opacity="0.185453869" stroke-linecap="round"></path>
            </g>
        </g>
    </g>
</svg>