<?xml version="1.0" encoding="UTF-8"?>
<svg width="130px" height="68px" viewBox="0 0 130 68" version="1.1" xmlns="http://www.w3.org/2000/svg" xmlns:xlink="http://www.w3.org/1999/xlink">
    <title>云框小二</title>
    <defs>
        <linearGradient x1="75.1472961%" y1="49.6270824%" x2="2.39180753%" y2="47.8597087%" id="linearGradient-1">
            <stop stop-color="#009FF6" offset="0%"></stop>
            <stop stop-color="#0AF1FF" offset="100%"></stop>
        </linearGradient>
        <linearGradient x1="75.1472961%" y1="47.7338548%" x2="2.39180753%" y2="36.9938814%" id="linearGradient-2">
            <stop stop-color="#009FF6" offset="0%"></stop>
            <stop stop-color="#0AF1FF" offset="100%"></stop>
        </linearGradient>
        <linearGradient x1="100%" y1="59.0698242%" x2="5.06572421%" y2="59.0698242%" id="linearGradient-3">
            <stop stop-color="#0047F0" offset="0%"></stop>
            <stop stop-color="#009AFF" offset="100%"></stop>
        </linearGradient>
        <linearGradient x1="8.61545139%" y1="39.3896447%" x2="71.4502728%" y2="66.0493827%" id="linearGradient-4">
            <stop stop-color="#26A8FF" offset="0%"></stop>
            <stop stop-color="#0064FF" offset="100%"></stop>
        </linearGradient>
    </defs>
    <g id="蓝色风格" stroke="none" stroke-width="1" fill="none" fill-rule="evenodd" opacity="0.800339472">
        <g id="切图" transform="translate(-5844.000000, -1346.000000)">
            <g id="云框小二" transform="translate(5844.000000, 1346.000000)">
                <rect id="矩形" fill="#FFAC22" x="0" y="18" width="13" height="28" rx="3"></rect>
                <rect id="矩形备份" fill="#FFAC22" x="89" y="40" width="17" height="28" rx="3"></rect>
                <path d="M4,0 L79.0571767,0 C80.9568338,3.20375234e-15 82.7945009,0.675991192 84.2413261,1.90700442 L96.6914062,12.5 C99.6761057,15.0394944 100.037016,19.5177383 97.4975214,22.5024378 C96.1493461,24.0869652 94.1737025,25 92.0932449,25 L8,25 C3.581722,25 -2.12345226e-15,21.418278 0,17 L0,4 C-2.705415e-16,1.790861 1.790861,1.29399067e-15 4,0 Z" id="矩形" fill="url(#linearGradient-1)"></path>
                <path d="M88.811377,43 L97.6693349,43 C99.568992,43 101.406659,43.6759912 102.853484,44.9070044 L115.303564,55.5 C118.288264,58.0394944 118.649174,62.5177383 116.10968,65.5024378 C114.761504,67.0869652 112.785861,68 110.705403,68 L88.811377,68 C86.602238,68 84.811377,66.209139 84.811377,64 L84.811377,47 C84.811377,44.790861 86.602238,43 88.811377,43 Z" id="矩形备份-8" fill="url(#linearGradient-2)" transform="translate(107.403174, 55.500000) scale(-1, 1) translate(-107.403174, -55.500000) "></path>
                <path d="M120,2.5 C122.071068,2.5 123.946068,3.33946609 125.303301,4.69669914 C126.660534,6.05393219 127.5,7.92893219 127.5,10 L127.5,10 L127.5,62 C127.5,62.9664983 127.108249,63.8414983 126.474874,64.4748737 C125.841498,65.1082492 124.966498,65.5 124,65.5 L124,65.5 L10,65.5 C7.92893219,65.5 6.05393219,64.6605339 4.69669914,63.3033009 C3.33946609,61.9460678 2.5,60.0710678 2.5,58 L2.5,58 L2.5,6 C2.5,5.03350169 2.89175084,4.15850169 3.52512627,3.52512627 C4.15850169,2.89175084 5.03350169,2.5 6,2.5 L6,2.5 Z" id="矩形" stroke="url(#linearGradient-4)" fill="url(#linearGradient-3)"></path>
            </g>
        </g>
    </g>
</svg>