<?xml version="1.0" encoding="UTF-8"?>
<svg width="60px" height="60px" viewBox="0 0 60 60" version="1.1" xmlns="http://www.w3.org/2000/svg" xmlns:xlink="http://www.w3.org/1999/xlink">
    <title>金融云小</title>
    <defs>
        <linearGradient x1="99.2890447%" y1="50%" x2="-6.85693577%" y2="50%" id="linearGradient-1">
            <stop stop-color="#529FF2" offset="0%"></stop>
            <stop stop-color="#93D7FF" offset="27.0323427%"></stop>
            <stop stop-color="#0F41F8" offset="53.0140119%"></stop>
            <stop stop-color="#4565F7" offset="100%"></stop>
        </linearGradient>
        <linearGradient x1="34.6103766%" y1="41.3738542%" x2="50%" y2="66.2293541%" id="linearGradient-2">
            <stop stop-color="#1B52E1" offset="0.0546328671%"></stop>
            <stop stop-color="#4ECBFF" offset="100%"></stop>
        </linearGradient>
        <linearGradient x1="84.6860859%" y1="64.027185%" x2="14.9131666%" y2="64.027185%" id="linearGradient-3">
            <stop stop-color="#197DEB" offset="0%"></stop>
            <stop stop-color="#0E45C3" offset="100%"></stop>
        </linearGradient>
        <linearGradient x1="50%" y1="66.8322333%" x2="50%" y2="98.1752622%" id="linearGradient-4">
            <stop stop-color="#FFFFFF" stop-opacity="0" offset="0%"></stop>
            <stop stop-color="#FFFFFF" offset="100%"></stop>
        </linearGradient>
        <linearGradient x1="100%" y1="50%" x2="39.3437062%" y2="54.8581128%" id="linearGradient-5">
            <stop stop-color="#71AAFF" offset="0%"></stop>
            <stop stop-color="#3F69E7" offset="100%"></stop>
        </linearGradient>
        <linearGradient x1="99.2890447%" y1="50%" x2="-6.85693577%" y2="50%" id="linearGradient-6">
            <stop stop-color="#51AAFA" offset="0%"></stop>
            <stop stop-color="#93DBFF" offset="27.0323427%"></stop>
            <stop stop-color="#0F41F8" offset="53.0140119%"></stop>
            <stop stop-color="#4565F7" offset="100%"></stop>
        </linearGradient>
        <linearGradient x1="39.180102%" y1="52.0070359%" x2="50%" y2="66.6045869%" id="linearGradient-7">
            <stop stop-color="#0053F5" offset="0%"></stop>
            <stop stop-color="#5CD1FF" offset="99.9890734%"></stop>
        </linearGradient>
        <linearGradient x1="20.3403224%" y1="33.1186559%" x2="78.1561539%" y2="68.9004512%" id="linearGradient-8">
            <stop stop-color="#948FFC" offset="0.0546328671%"></stop>
            <stop stop-color="#4699FF" offset="100%"></stop>
        </linearGradient>
        <linearGradient x1="50%" y1="0%" x2="50%" y2="100%" id="linearGradient-9">
            <stop stop-color="#0256DE" offset="0%"></stop>
            <stop stop-color="#D0A0FE" offset="99.4809878%"></stop>
        </linearGradient>
        <linearGradient x1="50%" y1="0%" x2="50%" y2="99.1085338%" id="linearGradient-10">
            <stop stop-color="#49C6FF" offset="0%"></stop>
            <stop stop-color="#125CE8" offset="100%"></stop>
        </linearGradient>
        <linearGradient x1="99.2890447%" y1="50%" x2="-6.85693577%" y2="50%" id="linearGradient-11">
            <stop stop-color="#51AAFA" offset="0%"></stop>
            <stop stop-color="#93DBFF" offset="27.0323427%"></stop>
            <stop stop-color="#0F41F8" offset="53.0140119%"></stop>
            <stop stop-color="#4565F7" offset="100%"></stop>
        </linearGradient>
        <linearGradient x1="32.2785314%" y1="36.7272218%" x2="50%" y2="66.6045869%" id="linearGradient-12">
            <stop stop-color="#3075F9" offset="0%"></stop>
            <stop stop-color="#3DD3F5" offset="100%"></stop>
        </linearGradient>
        <linearGradient x1="37.8505793%" y1="39.9984918%" x2="50%" y2="61.7768564%" id="linearGradient-13">
            <stop stop-color="#486BF9" offset="0%"></stop>
            <stop stop-color="#0A67F1" offset="100%"></stop>
        </linearGradient>
        <linearGradient x1="50%" y1="66.8322333%" x2="50%" y2="98.1752622%" id="linearGradient-14">
            <stop stop-color="#FFFFFF" stop-opacity="0" offset="0%"></stop>
            <stop stop-color="#FFFFFF" offset="100%"></stop>
        </linearGradient>
        <linearGradient x1="84.7524673%" y1="61.3748649%" x2="4.94175302%" y2="46.8272449%" id="linearGradient-15">
            <stop stop-color="#1E50E7" offset="0%"></stop>
            <stop stop-color="#0357E2" offset="100%"></stop>
        </linearGradient>
        <linearGradient x1="33.9305505%" y1="39.6359297%" x2="49.9036428%" y2="63.4523439%" id="linearGradient-16">
            <stop stop-color="#578BFA" offset="0%"></stop>
            <stop stop-color="#5EBDF2" offset="100%"></stop>
        </linearGradient>
    </defs>
    <g id="大页面" stroke="none" stroke-width="1" fill="none" fill-rule="evenodd">
        <g id="切图" transform="translate(-327.000000, -39.000000)">
            <g id="编组-98备份" transform="translate(335.000000, 46.000000)">
                <g id="编组-3" transform="translate(0.000000, 16.258482)">
                    <path d="M21,5.17570488 C29.9918331,5.17570488 37.6637203,8.40045333 40.6575465,12.9337607 L42,12.9341615 L42,17.644585 L41.9830763,17.6441347 C41.5366182,24.0370047 32.3129924,29.1415183 21,29.1415183 C9.68700765,29.1415183 0.463381762,24.0370047 0.0169236524,17.6441347 L0,17.644585 L0,12.9341615 L1.34245345,12.9337607 C4.33627971,8.40045333 12.0081669,5.17570488 21,5.17570488 Z" id="形状结合" fill="url(#linearGradient-1)"></path>
                    <ellipse id="椭圆形" fill="url(#linearGradient-2)" cx="21" cy="11.9829067" rx="21" ry="11.9829067"></ellipse>
                    <path d="M21,0 C32.5979797,0 42,5.36493007 42,11.9829067 C42,12.8978839 41.8202821,13.7889094 41.4798901,14.6451165 C39.3572289,9.30925997 30.9938773,5.32573631 21,5.32573631 C11.0061227,5.32573631 2.64277111,9.30925997 0.520497268,14.645459 C0.179717892,13.7889094 0,12.8978839 0,11.9829067 C0,5.36493007 9.40202025,0 21,0 Z" id="形状结合" fill="url(#linearGradient-3)"></path>
                    <ellipse id="椭圆形" stroke="url(#linearGradient-4)" stroke-width="0.5" cx="21" cy="11.9829067" rx="20.75" ry="11.7329067"></ellipse>
                    <path d="M3.15,18.0510885 L21,13.0577946 L21,23.9425453 C16.0536734,23.6952478 12.3613469,23.055885 9.92302058,22.024457 C7.48469426,20.993029 5.22702073,19.6685729 3.15,18.0510885 Z" id="路径-9" fill="#FFFFFF" opacity="0.475911458"></path>
                    <path d="M3.15,18.0510885 L3.15,23.3402213 C7.87953646,27.2077498 13.8295365,29.1415141 21,29.1415141 C20.9975378,26.9973935 20.9975378,25.2709687 21,23.9622397 C17.0862505,23.846346 13.8451397,23.3599132 11.2766677,22.5029412 C8.70819561,21.6459692 5.99930639,20.1620183 3.15,18.0510885 Z" id="路径-10" fill="url(#linearGradient-5)"></path>
                </g>
                <polygon id="路径-8" fill="#64D3FA" opacity="0.437313988" points="3.15 39.854783 21 34.9875094 21 29.2760595 3.15 34.3095702"></polygon>
                <g id="编组-8备份" transform="translate(5.775000, 11.404684)">
                    <path d="M15.225,5.51594118 C21.2255801,5.51594118 26.4153708,7.51954231 28.8956797,10.4308699 L30.45,10.4312549 L30.45,13.094123 L30.3071182,13.0945424 C30.4013218,13.4897217 30.45,13.8932828 30.45,14.3034061 C30.45,19.156589 23.6335353,23.090871 15.225,23.090871 C6.81646468,23.090871 9.09494702e-13,19.156589 9.09494702e-13,14.3034061 C9.09494702e-13,13.8932828 0.0486782216,13.4897217 0.142881845,13.0945424 L0,13.094123 L0,10.4312549 L1.55432032,10.4308699 C4.03462919,7.51954231 9.22441985,5.51594118 15.225,5.51594118 Z" id="形状结合" fill="url(#linearGradient-6)"></path>
                    <path d="M15.225,17.5749298 C23.6335353,17.5749298 30.45,13.6406478 30.45,8.78746491 C30.45,3.93428205 23.6335353,0 15.225,0 C6.81646468,0 0,3.93428205 0,8.78746491 C0,13.6406478 6.81646468,17.5749298 15.225,17.5749298 Z" id="椭圆形" fill="url(#linearGradient-7)"></path>
                </g>
                <g id="编组-8备份" transform="translate(5.775000, 5.214749)">
                    <path d="M15.225,5.537532 C20.4253887,5.537532 25.0168111,7.04239303 27.7633702,9.33878821 L30.45,9.33857312 L30.45,16.2620303 L30.0789697,16.2618279 C28.5506868,20.1831607 22.4805379,23.1124618 15.225,23.1124618 C7.96946214,23.1124618 1.89931316,20.1831607 0.371030319,16.2618279 L0,16.2620303 L0,9.33857312 L2.68662977,9.33878821 C5.43318891,7.04239303 10.0246113,5.537532 15.225,5.537532 Z" id="形状结合" fill="url(#linearGradient-6)"></path>
                    <path d="M15.225,17.5749298 C23.6335353,17.5749298 30.45,13.6406478 30.45,8.78746491 C30.45,3.93428205 23.6335353,0 15.225,0 C6.81646468,0 0,3.93428205 0,8.78746491 C0,13.6406478 6.81646468,17.5749298 15.225,17.5749298 Z" id="椭圆形" fill="url(#linearGradient-7)"></path>
                </g>
                <g id="编组-42" transform="translate(0.000000, 4.315748)">
                    <path d="M21,0.5 C26.3978064,0.5 31.2875192,1.83817873 34.8258672,4.01364135 C38.2539381,6.12130295 40.4230769,9.01821026 40.4230769,12.2491935 C40.4230769,15.4801768 38.2539381,18.3770841 34.8258672,20.4847457 C31.2875192,22.6602083 26.3978064,23.998387 21,23.998387 C15.6021936,23.998387 10.7124808,22.6602083 7.17413282,20.4847457 C3.74606189,18.3770841 1.57692308,15.4801768 1.57692308,12.2491935 C1.57692308,9.01821026 3.74606189,6.12130295 7.17413282,4.01364135 C10.7124808,1.83817873 15.6021936,0.5 21,0.5 Z" id="椭圆形" stroke="url(#linearGradient-8)"></path>
                    <ellipse id="椭圆形" fill="url(#linearGradient-9)" cx="1.61538462" cy="12.2491935" rx="1.61538462" ry="1.59772089"></ellipse>
                    <ellipse id="椭圆形备份-15" fill="url(#linearGradient-10)" cx="35" cy="20.7360616" rx="2.69230769" ry="2.66286816"></ellipse>
                </g>
                <g id="编组-8" transform="translate(5.775000, 0.000000)">
                    <path d="M15.225,5.1298253 C20.163535,5.1298253 24.5528859,6.44582893 27.3346055,8.48544091 L30.45,8.48598379 L30.45,12.7465728 L30.3651823,12.7461827 C30.4212504,13.0434975 30.45,13.3453714 30.45,13.6510034 C30.45,18.3571201 23.6335353,22.1721815 15.225,22.1721815 C6.81646468,22.1721815 0,18.3571201 0,13.6510034 C0,13.3453714 0.0287495844,13.0434975 0.084817737,12.7461827 L0,12.7465728 L0,8.48598379 L3.11539454,8.48544091 C5.8971141,6.44582893 10.286465,5.1298253 15.225,5.1298253 Z" id="形状结合" fill="url(#linearGradient-11)"></path>
                    <path d="M15.225,17.5749298 C23.6335353,17.5749298 30.45,13.6406478 30.45,8.78746491 C30.45,3.93428205 23.6335353,0 15.225,0 C6.81646468,0 0,3.93428205 0,8.78746491 C0,13.6406478 6.81646468,17.5749298 15.225,17.5749298 Z" id="椭圆形" fill="url(#linearGradient-12)"></path>
                    <g id="透视深色" transform="translate(0.000000, 4.087503)">
                        <path d="M15.225,4.79316268 C20.6247249,4.79316268 25.3614559,6.34699062 28.0243494,8.78608637 L27.6144792,9.11783678 C24.891619,6.8340149 20.3578483,5.33905065 15.225,5.33905065 C10.1798352,5.33905065 5.71345488,6.78337479 2.97663334,9.00130348 L2.55735141,8.66766574 C5.24295035,6.29680897 9.91318413,4.79316268 15.225,4.79316268 Z" id="形状结合" fill="#2A8EE4"></path>
                        <path d="M15.225,0 C22.1490778,0 27.982996,2.72043171 29.7520088,6.4274882 L29.5525347,6.69423958 C27.5689147,3.20304678 21.8732743,0.870958122 15.185941,0.870958122 C8.59264403,0.870958122 3.0123245,3.13792088 0.974655082,6.54745573 L0.788071686,6.24633312 C2.65819492,2.63214122 8.414208,0 15.225,0 Z" id="形状结合" fill="#397BD0"></path>
                    </g>
                    <g id="编组-4" transform="translate(3.441780, 1.585449)">
                        <path d="M11.8129448,6.28217859 C18.1456416,6.28217859 23.2793066,9.18636841 23.2793066,12.7688681 C23.2793066,13.0110489 23.2558463,13.2501299 23.2101411,13.4854234 L23.2120303,13.5663489 C23.2120303,10.309531 18.0783652,7.66935841 11.7456684,7.66935841 C5.8434008,7.66935841 0.982709443,9.96282663 0.349221094,12.9114395 L0.34658299,12.7688681 C0.34658299,9.18636841 5.48024804,6.28217859 11.8129448,6.28217859 Z" id="形状结合备份-11" fill="#3E9AFF" transform="translate(11.812945, 9.924264) scale(1, -1) translate(-11.812945, -9.924264) "></path>
                        <path d="M11.7,12.5196705 C18.1617316,12.5196705 23.4,9.97345761 23.4,6.83254489 C23.4,3.69163217 18.1617316,1.14541933 11.7,1.14541933 C5.23826843,1.14541933 9.09494702e-13,3.69163217 9.09494702e-13,6.83254489 C9.09494702e-13,9.97345761 5.23826843,12.5196705 11.7,12.5196705 Z" id="椭圆形" fill="url(#linearGradient-13)"></path>
                        <path d="M11.7,0 C18.1617316,0 23.4,2.97818791 23.4,6.65196887 C23.4,7.2462889 23.2629112,7.82240482 23.0057311,8.37065279 C23.0686024,8.09920441 23.101,7.82248915 23.101,7.54154324 C23.101,4.00906155 17.9791375,1.14541933 11.661,1.14541933 C5.34286246,1.14541933 0.221,4.00906155 0.221,7.54154324 C0.221,7.70883746 0.232487616,7.87463156 0.255045876,8.03869242 C0.0877857932,7.59148908 0,7.12755754 0,6.65196887 C0,2.97818791 5.23826843,0 11.7,0 Z" id="形状结合" fill="#1447E1"></path>
                    </g>
                    <path d="M15.225,0.25 C19.3797503,0.25 23.1425293,1.21855315 25.8657295,2.79031182 C27.2354,3.58084918 28.3407714,4.52325763 29.0939327,5.57272759 C29.8046559,6.56306329 30.2,7.64819079 30.2,8.78746491 C30.2,9.92673904 29.8046559,11.0118665 29.0939327,12.0022022 C28.3407714,13.0516722 27.2354,13.9940806 25.8657295,14.784618 C23.1425293,16.3563767 19.3797503,17.3249298 15.225,17.3249298 C11.0702497,17.3249298 7.30747068,16.3563767 4.58427053,14.784618 C3.21460004,13.9940806 2.1092286,13.0516722 1.35606725,12.0022022 C0.645344129,11.0118665 0.25,9.92673904 0.25,8.78746491 C0.25,7.64819079 0.645344129,6.56306329 1.35606725,5.57272759 C2.1092286,4.52325763 3.21460004,3.58084918 4.58427053,2.79031182 C7.30747068,1.21855315 11.0702497,0.25 15.225,0.25 Z" id="高光" stroke="url(#linearGradient-14)" stroke-width="0.5"></path>
                </g>
                <g id="编组" transform="translate(12.873962, 2.958719)">
                    <path d="M8.73558077,0.600268939 L8.73658753,1.64285907 C8.75148142,1.69578334 8.75287643,1.7508134 8.73913754,1.80689953 L8.735,1.82226894 L8.73558077,2.00578281 L8.69,2.00526894 L8.17518898,4.10910074 L10.0931547,3.31649822 C10.2713957,3.24283984 10.4755581,3.19758801 10.6841716,3.17971116 L10.6849486,2.77022542 L12.0704749,2.77022542 L12.0719831,3.67881759 C12.1446971,3.89960612 11.9827366,4.13700309 11.6106574,4.29076544 L9.34303566,5.22786387 L10.5969721,6.03291626 L12.8748778,5.09156795 C13.0585373,5.01567036 13.2697182,4.96993268 13.484932,4.95322639 L13.4851701,4.27061834 L14.8706964,4.27061834 L14.8706964,5.67613221 L14.8493488,5.67583239 C14.795567,5.82322567 14.640808,5.96317208 14.3923804,6.06583516 L12.586,6.81126894 L13.3930322,6.81130655 L13.3930322,8.21682042 L13.3360503,8.21631124 C13.265979,8.34144985 13.1212515,8.45800055 12.9065834,8.54671249 C12.3670124,8.76969113 11.589899,8.73235389 11.1708522,8.46331743 L10.1605149,7.81466056 L7.88260921,8.75600887 C7.34303812,8.97898749 6.56592477,8.94165027 6.146878,8.67261382 C5.92120386,8.52772648 5.84540154,8.34518765 5.90777474,8.17274496 L5.9086482,7.42502931 L7.229,7.42426894 L8.64301231,6.84039335 L7.37709563,6.02764938 L5.09918989,6.96899769 C4.55961879,7.19197634 3.78250546,7.1546391 3.36345867,6.88560263 C3.12861787,6.73483011 3.05607143,6.54328525 3.13263912,6.36477361 L3.134716,5.46607148 L4.52024231,5.46607148 L4.52,5.60626894 L5.43794901,5.22762723 L0.934183311,5.011239 C0.330964273,4.94314396 -0.0652383645,4.65477067 0.00889745605,4.33777621 C0.0190632375,4.29430874 0.0376389489,4.25215801 0.0637311173,4.21174722 L1.8189894e-12,4.21127747 L1.8189894e-12,3.29769346 L1.38552632,3.29769346 L1.385,3.76826894 L5.79428814,3.98047587 L6.35479099,1.69234106 C6.42269916,1.41512026 6.839248,1.19821549 7.35021003,1.14668667 L7.35005445,0.600268939 L8.73558077,0.600268939 Z" id="形状结合" fill="url(#linearGradient-15)" fill-rule="nonzero"></path>
                    <path d="M12.8748778,3.95655263 C13.4144489,3.73357399 14.1915622,3.77091123 14.610609,4.03994769 C15.0296558,4.30898415 14.9319515,4.7078412 14.3923804,4.93081984 L12.1144747,5.87216815 L13.124812,6.52082502 C13.5438588,6.78986148 13.4461545,7.18871853 12.9065834,7.41169717 C12.3670124,7.63467581 11.589899,7.59733857 11.1708522,7.32830211 L10.1605149,6.67964524 L7.88260921,7.62099355 C7.34303812,7.84397217 6.56592477,7.80663495 6.146878,7.5375985 C5.72783124,7.26856205 5.82553554,6.86970499 6.36510658,6.64672634 L8.64301231,5.70537803 L7.37709563,4.89263406 L5.09918989,5.83398237 C4.55961879,6.05696102 3.78250546,6.01962378 3.36345867,5.75058731 C2.94441189,5.48155085 3.04211614,5.08269379 3.58168724,4.85971515 L5.43794901,4.09261191 L0.934183311,3.87622368 C0.330964273,3.80812864 -0.0652383645,3.51975535 0.00889745604,3.20276089 C0.0830332766,2.88576643 0.604436289,2.63880034 1.22657444,2.62599988 L5.79428814,2.84546055 L6.35479099,0.557325739 C6.43757216,0.219389047 7.03843371,-0.0289179824 7.69685283,0.00271646682 C8.35527195,0.034350916 8.82191871,0.333947521 8.73913754,0.671884214 L8.17518898,2.97408542 L10.0931547,2.1814829 C10.6327258,1.95850426 11.4098392,1.9958415 11.828886,2.26487796 C12.2479327,2.53391442 12.1502285,2.93277148 11.6106574,3.15575012 L9.34303566,4.09284855 L10.5969721,4.89790094 L12.8748778,3.95655263 Z" id="路径" fill="url(#linearGradient-16)"></path>
                </g>
            </g>
        </g>
    </g>
</svg>