<?xml version="1.0" encoding="UTF-8"?>
<svg width="108px" height="108px" viewBox="0 0 108 108" version="1.1" xmlns="http://www.w3.org/2000/svg" xmlns:xlink="http://www.w3.org/1999/xlink">
    <title>金融云大</title>
    <defs>
        <linearGradient x1="99.2890447%" y1="50%" x2="-6.85693577%" y2="50%" id="linearGradient-1">
            <stop stop-color="#529FF2" offset="0%"></stop>
            <stop stop-color="#93D7FF" offset="27.0323427%"></stop>
            <stop stop-color="#0F41F8" offset="53.0140119%"></stop>
            <stop stop-color="#4565F7" offset="100%"></stop>
        </linearGradient>
        <linearGradient x1="34.6103766%" y1="41.1820659%" x2="50%" y2="66.5901874%" id="linearGradient-2">
            <stop stop-color="#006DD9" offset="0%"></stop>
            <stop stop-color="#4ECBFF" offset="100%"></stop>
        </linearGradient>
        <linearGradient x1="84.6860859%" y1="64.027185%" x2="14.9131666%" y2="64.027185%" id="linearGradient-3">
            <stop stop-color="#197DEB" offset="0%"></stop>
            <stop stop-color="#0E45C3" offset="100%"></stop>
        </linearGradient>
        <linearGradient x1="50%" y1="66.8322333%" x2="50%" y2="98.1752622%" id="linearGradient-4">
            <stop stop-color="#FFFFFF" stop-opacity="0" offset="0%"></stop>
            <stop stop-color="#FFFFFF" offset="100%"></stop>
        </linearGradient>
        <linearGradient x1="100%" y1="50%" x2="39.3437062%" y2="54.9661251%" id="linearGradient-5">
            <stop stop-color="#71AAFF" offset="0%"></stop>
            <stop stop-color="#3F69E7" offset="100%"></stop>
        </linearGradient>
        <linearGradient x1="99.2890447%" y1="50%" x2="-6.85693577%" y2="50%" id="linearGradient-6">
            <stop stop-color="#51AAFA" offset="0%"></stop>
            <stop stop-color="#93DBFF" offset="27.0323427%"></stop>
            <stop stop-color="#0F41F8" offset="53.0140119%"></stop>
            <stop stop-color="#4565F7" offset="100%"></stop>
        </linearGradient>
        <linearGradient x1="39.180102%" y1="52.0516591%" x2="50%" y2="66.9737629%" id="linearGradient-7">
            <stop stop-color="#0053F5" offset="0%"></stop>
            <stop stop-color="#5CD1FF" offset="99.9890734%"></stop>
        </linearGradient>
        <linearGradient x1="20.3403224%" y1="32.7433267%" x2="78.1561539%" y2="69.320672%" id="linearGradient-8">
            <stop stop-color="#948FFC" offset="0.0546328671%"></stop>
            <stop stop-color="#4699FF" offset="100%"></stop>
        </linearGradient>
        <linearGradient x1="50%" y1="0%" x2="50%" y2="100%" id="linearGradient-9">
            <stop stop-color="#0256DE" offset="0%"></stop>
            <stop stop-color="#D0A0FE" offset="99.4809878%"></stop>
        </linearGradient>
        <linearGradient x1="50%" y1="0%" x2="50%" y2="99.1085338%" id="linearGradient-10">
            <stop stop-color="#49C6FF" offset="0%"></stop>
            <stop stop-color="#125CE8" offset="100%"></stop>
        </linearGradient>
        <linearGradient x1="99.2890447%" y1="50%" x2="-6.85693577%" y2="50%" id="linearGradient-11">
            <stop stop-color="#51AAFA" offset="0%"></stop>
            <stop stop-color="#93DBFF" offset="27.0323427%"></stop>
            <stop stop-color="#0F41F8" offset="53.0140119%"></stop>
            <stop stop-color="#4565F7" offset="100%"></stop>
        </linearGradient>
        <linearGradient x1="32.2785314%" y1="36.4321231%" x2="50%" y2="66.9737629%" id="linearGradient-12">
            <stop stop-color="#3075F9" offset="0%"></stop>
            <stop stop-color="#3DD3F5" offset="100%"></stop>
        </linearGradient>
        <linearGradient x1="37.8505793%" y1="39.7761246%" x2="50%" y2="62.0386956%" id="linearGradient-13">
            <stop stop-color="#486BF9" offset="0%"></stop>
            <stop stop-color="#0A67F1" offset="100%"></stop>
        </linearGradient>
        <linearGradient x1="50%" y1="66.8322333%" x2="50%" y2="98.1752622%" id="linearGradient-14">
            <stop stop-color="#FFFFFF" stop-opacity="0" offset="0%"></stop>
            <stop stop-color="#FFFFFF" offset="100%"></stop>
        </linearGradient>
        <linearGradient x1="84.7524673%" y1="61.6277665%" x2="4.94175302%" y2="46.7567038%" id="linearGradient-15">
            <stop stop-color="#1E50E7" offset="0%"></stop>
            <stop stop-color="#0357E2" offset="100%"></stop>
        </linearGradient>
        <linearGradient x1="33.9305505%" y1="39.4055014%" x2="49.9036428%" y2="63.7514349%" id="linearGradient-16">
            <stop stop-color="#578BFA" offset="0%"></stop>
            <stop stop-color="#5EBDF2" offset="100%"></stop>
        </linearGradient>
    </defs>
    <g id="大页面" stroke="none" stroke-width="1" fill="none" fill-rule="evenodd">
        <g id="切图" transform="translate(-304.000000, -136.000000)">
            <g id="编组-98备份" transform="translate(320.000000, 147.000000)">
                <g id="编组-3" transform="translate(0.000000, 29.941059)">
                    <path d="M38.25,9.5313996 C54.6280043,9.5313996 68.6018149,15.4700015 74.0548395,23.8184022 L76.5,23.8191056 L76.5,32.4936592 L76.4690719,32.4943182 C75.6545674,44.2665111 58.8549392,53.666015 38.25,53.666015 C17.6450608,53.666015 0.845432595,44.2665111 0.0309281047,32.4943182 L0,32.4936592 L0,23.8191056 L2.44516047,23.8184022 C7.89818515,15.4700015 21.8719957,9.5313996 38.25,9.5313996 Z" id="形状结合" fill="url(#linearGradient-1)"></path>
                    <ellipse id="椭圆形" fill="url(#linearGradient-2)" cx="38.25" cy="22.0673077" rx="38.25" ry="22.0673077"></ellipse>
                    <path d="M38.25,0 C59.3748917,0 76.5,9.87987018 76.5,22.0673077 C76.5,23.7529404 76.1724071,25.3944308 75.5519479,26.9717443 C71.6874029,17.1441041 56.4537441,9.80769231 38.25,9.80769231 C20.0468718,9.80769231 4.81362793,17.1436077 0.948052067,26.9705634 C0.327454782,25.3937388 0,23.7525851 0,22.0673077 C0,9.87987018 17.1251083,0 38.25,0 Z" id="形状结合" fill="url(#linearGradient-3)"></path>
                    <ellipse id="椭圆形" stroke="url(#linearGradient-4)" stroke-width="0.5" cx="38.25" cy="22.0673077" rx="38" ry="21.8173077"></ellipse>
                    <path d="M5.7375,33.242262 L38.25,24.0467842 L38.25,44.0917657 C29.2406194,43.6363511 22.5153104,42.4589227 18.0740732,40.5594805 C13.632836,38.6600382 9.52064491,36.2209654 5.7375,33.242262 Z" id="路径-9" fill="#FFFFFF" opacity="0.475911458"></path>
                    <path d="M5.7375,33.242262 L5.7375,42.9825465 C14.3520128,50.1048537 25.1895128,53.6660073 38.25,53.6660073 C38.2455154,49.7174687 38.2455154,46.5381444 38.25,44.1280342 C31.1213848,43.9146084 25.2179331,43.0188104 20.5396447,41.4406403 C15.8613563,39.8624702 10.9273081,37.1296775 5.7375,33.242262 Z" id="路径-10" fill="url(#linearGradient-5)"></path>
                </g>
                <polygon id="路径-8" fill="#64D3FA" opacity="0.437313988" points="5.7375 73.3951938 38.25 64.4317906 38.25 53.9137815 5.7375 63.1833212"></polygon>
                <g id="编组-8备份" transform="translate(10.518750, 21.002473)">
                    <path d="M27.73125,10.157967 C38.6608577,10.157967 48.1136757,13.847716 52.6313912,19.2091001 L55.4625,19.2098392 L55.4625,24.1136854 L55.2019466,24.1131673 C55.3737313,24.8413277 55.4625,25.5849441 55.4625,26.3406593 C55.4625,35.2781135 43.0467965,42.5233516 27.73125,42.5233516 C12.4157035,42.5233516 1.65556457e-12,35.2781135 1.65556457e-12,26.3406593 C1.65556457e-12,25.5849441 0.0887687359,24.8413277 0.260553383,24.1131673 L0,24.1136854 L0,19.2098392 L2.8311088,19.2091001 C7.34882426,13.847716 16.8016423,10.157967 27.73125,10.157967 Z" id="形状结合" fill="url(#linearGradient-6)"></path>
                    <path d="M27.73125,32.3653846 C43.0467965,32.3653846 55.4625,25.1201465 55.4625,16.1826923 C55.4625,7.24523814 43.0467965,0 27.73125,0 C12.4157035,0 0,7.24523814 0,16.1826923 C0,25.1201465 12.4157035,32.3653846 27.73125,32.3653846 Z" id="椭圆形" fill="url(#linearGradient-7)"></path>
                </g>
                <g id="编组-8备份" transform="translate(10.518750, 9.603302)">
                    <path d="M27.73125,10.1977279 C37.2031341,10.1977279 45.5658887,12.9688804 50.5685958,17.1976522 L55.4625,17.1975942 L55.4625,29.9475942 L54.7866057,29.9474525 C52.0028009,37.1687278 40.946553,42.5631126 27.73125,42.5631126 C14.515947,42.5631126 3.45969912,37.1687278 0.6758943,29.9474525 L0,29.9475942 L0,17.1975942 L4.89405845,17.1975218 C9.89678317,12.9688234 18.2594633,10.1977279 27.73125,10.1977279 Z" id="形状结合" fill="url(#linearGradient-6)"></path>
                    <path d="M27.73125,32.3653846 C43.0467965,32.3653846 55.4625,25.1201465 55.4625,16.1826923 C55.4625,7.24523814 43.0467965,0 27.73125,0 C12.4157035,0 0,7.24523814 0,16.1826923 C0,25.1201465 12.4157035,32.3653846 27.73125,32.3653846 Z" id="椭圆形" fill="url(#linearGradient-7)"></path>
                </g>
                <g id="编组-42" transform="translate(0.000000, 7.947734)">
                    <path d="M38.25,0.5 C48.1661499,0.5 57.1464853,2.99149206 63.6458502,7.03163777 C70.0379442,11.0051016 74.0384615,16.4801627 74.0384615,22.5576923 C74.0384615,28.6352219 70.0379442,34.110283 63.6458502,38.0837468 C57.1464853,42.1238926 48.1661499,44.6153846 38.25,44.6153846 C28.3338501,44.6153846 19.3535147,42.1238926 12.8541498,38.0837468 C6.46205579,34.110283 2.46153846,28.6352219 2.46153846,22.5576923 C2.46153846,16.4801627 6.46205579,11.0051016 12.8541498,7.03163777 C19.3535147,2.99149206 28.3338501,0.5 38.25,0.5 Z" id="椭圆形" stroke="url(#linearGradient-8)"></path>
                    <circle id="椭圆形" fill="url(#linearGradient-9)" cx="2.94230769" cy="22.5576923" r="2.94230769"></circle>
                    <circle id="椭圆形备份-15" fill="url(#linearGradient-10)" cx="63.75" cy="38.1868158" r="4.90384615"></circle>
                </g>
                <g id="编组-8" transform="translate(10.518750, 0.000000)">
                    <path d="M27.73125,9.44690934 C36.7267773,9.44690934 44.7219298,11.8705987 49.7886036,15.6269195 L55.4625,15.6274951 L55.4625,23.4736489 L55.3080241,23.4730029 C55.4101393,24.0205041 55.4625,24.5764004 55.4625,25.139217 C55.4625,33.8058393 43.0467965,40.8315247 27.73125,40.8315247 C12.4157035,40.8315247 0,33.8058393 0,25.139217 C0,24.5764004 0.0523606969,24.0205041 0.154475942,23.4730029 L0,23.4736489 L0,15.6274951 L5.67389642,15.6269195 C10.7405702,11.8705987 18.7357227,9.44690934 27.73125,9.44690934 Z" id="形状结合" fill="url(#linearGradient-11)"></path>
                    <path d="M27.73125,32.3653846 C43.0467965,32.3653846 55.4625,25.1201465 55.4625,16.1826923 C55.4625,7.24523814 43.0467965,0 27.73125,0 C12.4157035,0 0,7.24523814 0,16.1826923 C0,25.1201465 12.4157035,32.3653846 27.73125,32.3653846 Z" id="椭圆形" fill="url(#linearGradient-12)"></path>
                    <g id="透视深色" transform="translate(0.000000, 7.527404)">
                        <path d="M27.73125,8.82692308 C37.5668163,8.82692308 46.1947,11.6886045 51.0448732,16.1806375 L50.2992918,16.7919775 C45.3399234,12.5858254 37.0812821,9.83221154 27.73125,9.83221154 C18.5427594,9.83221154 10.4082732,12.4914984 5.42321711,16.5752676 L4.65801971,15.9620861 C9.54964425,11.5959912 18.0561481,8.82692308 27.73125,8.82692308 Z" id="形状结合" fill="#2A8EE4"></path>
                        <path d="M27.73125,0 C40.342238,0 50.9678064,5.00927711 54.1906031,11.835463 L53.8270703,12.3265748 C50.2136676,5.89814801 39.8399368,1.60392644 27.6601068,1.60392644 C15.6513713,1.60392644 5.48755313,5.77835039 1.77571336,12.0568096 L1.43580258,11.5022769 C4.84250475,4.84689405 15.3263478,0 27.73125,0 Z" id="形状结合" fill="#397BD0"></path>
                    </g>
                    <g id="编组-4" transform="translate(6.268956, 2.919708)">
                        <path d="M21.5164352,11.5690434 C33.05099,11.5690434 42.4015942,16.9172992 42.4015942,23.5147071 C42.4015942,23.9601363 42.3589706,24.3998714 42.275929,24.8326509 L42.2790551,24.9833202 C42.2790551,18.9856767 32.9284509,14.1236259 21.3938961,14.1236259 C10.6430388,14.1236259 1.78944361,18.3474324 0.635985222,23.7777139 C0.632936462,23.6903088 0.63127616,23.6026189 0.63127616,23.5147071 C0.63127616,16.9172992 9.98188036,11.5690434 21.5164352,11.5690434 Z" id="形状结合备份-11" fill="#3E9AFF" transform="translate(21.516435, 18.276182) scale(1, -1) translate(-21.516435, -18.276182) "></path>
                        <path d="M21.3107143,23.0557933 C33.0802968,23.0557933 42.6214286,18.3667756 42.6214286,12.582579 C42.6214286,6.79838249 33.0802968,2.10936473 21.3107143,2.10936473 C9.54113178,2.10936473 1.65657964e-12,6.79838249 1.65657964e-12,12.582579 C1.65657964e-12,18.3667756 9.54113178,23.0557933 21.3107143,23.0557933 Z" id="椭圆形" fill="url(#linearGradient-13)"></path>
                        <path d="M21.3107143,0 C33.0802968,0 42.6214286,5.48452813 42.6214286,12.2500364 C42.6214286,13.3436926 42.3721066,14.403875 41.9043526,15.4128273 C42.0180068,14.9135269 42.0768214,14.404769 42.0768214,13.8882459 C42.0768214,7.38294948 32.7477148,2.10936473 21.2396786,2.10936473 C9.73164234,2.10936473 0.402535714,7.38294948 0.402535714,13.8882459 C0.402535714,14.1979244 0.42367683,14.5048116 0.465187716,14.8084716 C0.160534025,13.9836325 0,13.127611 0,12.2500364 C0,5.48452813 9.54113178,0 21.3107143,0 Z" id="形状结合" fill="#1447E1"></path>
                    </g>
                    <path d="M27.73125,0.25 C35.3390931,0.25 42.2280794,2.0460514 47.2142016,4.95572479 C52.1378756,7.82895634 55.2125,11.7894513 55.2125,16.1826923 C55.2125,20.5759333 52.1378756,24.5364283 47.2142016,27.4096598 C42.2280794,30.3193332 35.3390931,32.1153846 27.73125,32.1153846 C20.1234069,32.1153846 13.2344206,30.3193332 8.24829844,27.4096598 C3.32462438,24.5364283 0.25,20.5759333 0.25,16.1826923 C0.25,11.7894513 3.32462438,7.82895634 8.24829844,4.95572479 C13.2344206,2.0460514 20.1234069,0.25 27.73125,0.25 Z" id="高光" stroke="url(#linearGradient-14)" stroke-width="0.5"></path>
                </g>
                <g id="编组" transform="translate(23.449003, 5.448675)">
                    <path d="M15.9112364,1.10543457 L15.9128189,3.02453267 C15.9401824,3.12227222 15.9428163,3.22391963 15.9177148,3.32752386 L15.911,3.35243457 L15.9112364,3.69378044 L15.828,3.69343457 L14.8905228,7.56717821 L18.3839604,6.10754874 C18.7089822,5.97174803 19.0813251,5.88837867 19.4617495,5.85553449 L19.4618706,5.10155159 L21.9855078,5.10155159 L21.9867424,6.77019725 C22.1229118,7.17808945 21.8282478,7.61749722 21.1479831,7.90172565 L17.0176721,9.6274538 L19.3016277,11.1100105 L23.4506703,9.37645593 C23.7853579,9.23661664 24.1702231,9.15237359 24.5624201,9.12164543 L24.5622741,7.86462344 L27.0859113,7.86462344 L27.0859113,10.4529693 L27.0469648,10.4525926 C26.948947,10.7239626 26.6670884,10.9816128 26.2146929,11.1706328 L22.927,12.5434346 L24.3944515,12.5434672 L24.3944515,15.1318131 L24.2898598,15.1323224 C24.161929,15.3622247 23.8986039,15.5763041 23.5084198,15.7393309 C22.5256296,16.1499607 21.1101732,16.0812018 20.3469095,15.5857535 L18.5066522,14.3912094 L14.3576096,16.124764 C13.3748194,16.5353937 11.959363,16.4666347 11.1960992,15.9711865 C10.7841791,15.7038017 10.6463976,15.3667852 10.7613151,15.0486273 L10.7621807,13.6736779 L13.165,13.6734346 L15.7426296,12.5970325 L13.4368527,11.1003112 L9.28781015,12.8338658 C8.30501995,13.2444956 6.88956352,13.1757366 6.12629973,12.6802883 C5.69577395,12.4008263 5.56471071,12.0453002 5.70863202,11.7147409 L5.70966128,10.0661287 L8.2332985,10.0661287 L8.233,10.3244346 L9.90483569,9.627018 L1.70154817,9.2285249 C0.602827783,9.10312344 -0.118827021,8.57206512 0.0162060807,7.98829906 C0.0348515182,7.90769235 0.0690295452,7.82954446 0.117078462,7.75465116 L3.31325443e-12,7.75534334 L3.31325443e-12,6.07291853 L2.52363722,6.07291853 L2.523,6.93943457 L10.553882,7.33030707 L11.5747979,3.11655693 C11.6984454,2.60621129 12.4566828,2.20686559 13.3869276,2.1117961 L13.3875992,1.10543457 L15.9112364,1.10543457 Z" id="形状结合" fill="url(#linearGradient-15)" fill-rule="nonzero"></path>
                    <path d="M23.4506703,7.28625086 C24.4334605,6.87562109 25.8489169,6.94438006 26.6121807,7.43982833 C27.3754445,7.93527659 27.1974831,8.66979798 26.2146929,9.08042776 L22.0656503,10.8139823 L23.9059076,12.0085264 C24.6691714,12.5039747 24.49121,13.2384961 23.5084198,13.6491259 C22.5256296,14.0597557 21.1101732,13.9909967 20.3469095,13.4955484 L18.5066522,12.3010043 L14.3576096,14.0345589 C13.3748194,14.4451886 11.959363,14.3764297 11.1960992,13.8809814 C10.4328355,13.3855332 10.6107969,12.6510118 11.593587,12.240382 L15.7426296,10.5068274 L13.4368527,9.01010614 L9.28781015,10.7436607 C8.30501995,11.1542905 6.88956352,11.0855315 6.12629973,10.5900833 C5.36303594,10.094635 5.54099726,9.36011359 6.52378747,8.94948381 L9.90483569,7.53681293 L1.70154817,7.13831983 C0.602827783,7.01291837 -0.118827021,6.48186005 0.0162060807,5.89809399 C0.151239182,5.31432793 1.10093753,4.85952369 2.23411773,4.83595081 L10.553882,5.240102 L11.5747979,1.02635186 C11.7255779,0.404019302 12.8200043,-0.053254359 14.0192677,0.00500255161 C15.2185311,0.0632594622 16.0684948,0.614986238 15.9177148,1.2373188 L14.8905228,5.47697314 L18.3839604,4.01734367 C19.3667506,3.60671389 20.7822071,3.67547286 21.5454708,4.17092114 C22.3087346,4.66636941 22.1307733,5.4008908 21.1479831,5.81152059 L17.0176721,7.53724873 L19.3016277,9.01980544 L23.4506703,7.28625086 Z" id="路径" fill="url(#linearGradient-16)"></path>
                </g>
            </g>
        </g>
    </g>
</svg>