<?xml version="1.0" encoding="UTF-8"?>
<svg width="388px" height="196px" viewBox="0 0 388 196" version="1.1" xmlns="http://www.w3.org/2000/svg" xmlns:xlink="http://www.w3.org/1999/xlink">
    <title>图片轮播底框</title>
    <defs>
        <linearGradient x1="50%" y1="1.88483392%" x2="50%" y2="100%" id="linearGradient-1">
            <stop stop-color="#0C79EF" offset="0%"></stop>
            <stop stop-color="#073EBC" offset="100%"></stop>
        </linearGradient>
        <path d="M13.9888916,6 L349.988892,6 C354.40717,6 357.988892,9.581722 357.988892,14 L357.988892,157.195266 C357.988892,161.613544 354.40717,165.195266 349.988892,165.195266 L13.9888916,165.195266 C9.5706136,165.195266 5.9888916,161.613544 5.9888916,157.195266 L5.9888916,14 C5.9888916,9.581722 9.5706136,6 13.9888916,6 Z" id="path-2"></path>
        <filter x="-7.4%" y="-16.3%" width="114.8%" height="132.7%" filterUnits="objectBoundingBox" id="filter-3">
            <feMorphology radius="3.5" operator="dilate" in="SourceAlpha" result="shadowSpreadOuter1"></feMorphology>
            <feOffset dx="0" dy="0" in="shadowSpreadOuter1" result="shadowOffsetOuter1"></feOffset>
            <feGaussianBlur stdDeviation="6.5" in="shadowOffsetOuter1" result="shadowBlurOuter1"></feGaussianBlur>
            <feComposite in="shadowBlurOuter1" in2="SourceAlpha" operator="out" result="shadowBlurOuter1"></feComposite>
            <feColorMatrix values="0 0 0 0 0.113173941   0 0 0 0 0.494484068   0 0 0 0 0.963088768  0 0 0 0.73399257 0" type="matrix" in="shadowBlurOuter1"></feColorMatrix>
        </filter>
    </defs>
    <g id="蓝色风格" stroke="none" stroke-width="1" fill="none" fill-rule="evenodd">
        <g id="切图" transform="translate(-76.000000, -519.000000)">
            <g id="图片轮播底框" transform="translate(88.011108, 531.000000)">
                <path d="M186.988892,0 L355.988892,0 C360.40717,-8.11624501e-16 363.988892,3.581722 363.988892,8 L363.988892,66 C363.988892,70.418278 360.40717,74 355.988892,74 L186.988892,74 C182.570614,74 178.988892,70.418278 178.988892,66 L178.988892,8 C178.988892,3.581722 182.570614,8.11624501e-16 186.988892,0 Z" id="矩形" fill="#93BEFF"></path>
                <path d="M11.9999951,97.0184603 L240.67153,96.8119581 C245.089799,96.8007471 248.674754,100.379233 248.678744,104.797509 C248.678746,104.799917 248.678747,104.802326 248.671526,104.804734 L248.671526,162.804734 C248.664299,167.220191 245.086978,170.800743 240.67153,170.811958 L11.9999951,171.01846 C5.37259059,171.035277 -0.00484193453,165.667548 -0.0108268297,159.040133 C-0.0108300917,159.036521 -0.0108317227,159.032909 0,159.029297 L0,109.029297 C0.0108415087,102.406111 5.37682216,97.0352828 11.9999951,97.0184603 Z" id="矩形备份-28" fill="#93BEFF"></path>
                <g id="矩形">
                    <use fill="black" fill-opacity="1" filter="url(#filter-3)" xlink:href="#path-2"></use>
                    <path stroke="#9BDEFF" stroke-width="2" d="M349.988892,5 C352.474173,5 354.724173,6.00735931 356.352853,7.63603897 C357.981532,9.26471863 358.988892,11.5147186 358.988892,14 L358.988892,14 L358.988892,157.195266 C358.988892,159.680548 357.981532,161.930548 356.352853,163.559227 C354.724173,165.187907 352.474173,166.195266 349.988892,166.195266 L349.988892,166.195266 L13.9888916,166.195266 C11.5036102,166.195266 9.25361023,165.187907 7.62493057,163.559227 C5.99625091,161.930548 4.9888916,159.680548 4.9888916,157.195266 L4.9888916,157.195266 L4.9888916,14 C4.9888916,11.5147186 5.99625091,9.26471863 7.62493057,7.63603897 C9.25361023,6.00735931 11.5036102,5 13.9888916,5 L13.9888916,5 Z" fill="url(#linearGradient-1)" fill-rule="evenodd"></path>
                </g>
            </g>
        </g>
    </g>
</svg>